<svg xmlns="http://www.w3.org/2000/svg" viewBox="0 0 660 420" role="img" aria-labelledby="title desc">
  <title id="title">ORCA Operator DMG background</title>
  <desc id="desc">Desktop installer background for ORCA Operator on macOS.</desc>
  <defs>
    <linearGradient id="bg" x1="0" x2="1" y1="0" y2="1">
      <stop offset="0%" stop-color="#07111b"/>
      <stop offset="58%" stop-color="#0d2334"/>
      <stop offset="100%" stop-color="#113c4e"/>
    </linearGradient>
    <radialGradient id="haloA" cx="28%" cy="18%" r="42%">
      <stop offset="0%" stop-color="#00e5ff" stop-opacity="0.28"/>
      <stop offset="100%" stop-color="#00e5ff" stop-opacity="0"/>
    </radialGradient>
    <radialGradient id="haloB" cx="78%" cy="68%" r="35%">
      <stop offset="0%" stop-color="#67d5a5" stop-opacity="0.20"/>
      <stop offset="100%" stop-color="#67d5a5" stop-opacity="0"/>
    </radialGradient>
  </defs>
  <rect width="660" height="420" rx="28" fill="url(#bg)"/>
  <rect width="660" height="420" rx="28" fill="url(#haloA)"/>
  <rect width="660" height="420" rx="28" fill="url(#haloB)"/>
  <g transform="translate(82 58)">
    <path d="M92 8 182 46c15 6 26 21 28 38v54c0 69-43 108-118 137C17 246-26 207-26 138V84c2-17 13-32 28-38Z" fill="none" stroke="#00e5ff" stroke-width="10" stroke-linejoin="round"/>
    <path d="M26 189c20-24 44-38 71-45-20-14-29-32-30-53 0-37 29-64 79-64 17 0 36 4 55 12-25 2-46 15-58 34 27 7 45 23 45 47 0 28-23 50-58 60 23 7 41 18 58 37-20-6-41-8-63-7-19 24-47 40-89 49 19-18 30-37 35-59-16 0-28-3-37-11Z" fill="#f4fbfd"/>
    <path d="M38 141c-29 6-51 21-64 47 28-8 50-10 71-5" fill="none" stroke="#00e5ff" stroke-width="8" stroke-linecap="round"/>
    <path d="M150 141c29 6 51 21 64 47-28-8-50-10-72-5" fill="none" stroke="#00e5ff" stroke-width="8" stroke-linecap="round"/>
  </g>
  <text x="326" y="132" fill="#f8fbfc" font-family="SF Pro Display, Segoe UI, Arial, sans-serif" font-size="36" font-weight="700">ORCA Operator</text>
  <text x="326" y="170" fill="#a5c8d2" font-family="SF Pro Text, Segoe UI, Arial, sans-serif" font-size="18">Drag the app into Applications to install your local command station.</text>
  <text x="326" y="220" fill="#7fe7b6" font-family="SF Pro Text, Segoe UI, Arial, sans-serif" font-size="15" letter-spacing="2">MACOS DESKTOP CONTROL CENTER</text>
  <text x="86" y="338" fill="#b8d5dc" font-family="SF Pro Text, Segoe UI, Arial, sans-serif" font-size="14">Local-first mission maps, telemetry, live feeds, and AI detections.</text>
  <path d="M284 210h64" fill="none" stroke="#d5edf3" stroke-width="4" stroke-linecap="round" opacity="0.85"/>
  <path d="M522 210h54" fill="none" stroke="#d5edf3" stroke-width="4" stroke-linecap="round" opacity="0.85"/>
  <path d="M562 198 584 210 562 222" fill="none" stroke="#d5edf3" stroke-width="4" stroke-linecap="round" stroke-linejoin="round" opacity="0.85"/>
</svg>
