<svg xmlns="http://www.w3.org/2000/svg" viewBox="0 0 320 480" role="img" aria-labelledby="title desc">
  <title id="title">ORCA Operator installer banner</title>
  <desc id="desc">Branded sidebar art for ORCA Operator desktop installers.</desc>
  <defs>
    <linearGradient id="bg" x1="0" x2="1" y1="0" y2="1">
      <stop offset="0%" stop-color="#07111b"/>
      <stop offset="55%" stop-color="#0b2234"/>
      <stop offset="100%" stop-color="#113a4a"/>
    </linearGradient>
    <radialGradient id="halo" cx="50%" cy="28%" r="52%">
      <stop offset="0%" stop-color="#00e5ff" stop-opacity="0.26"/>
      <stop offset="100%" stop-color="#00e5ff" stop-opacity="0"/>
    </radialGradient>
  </defs>
  <rect width="320" height="480" fill="url(#bg)" rx="32"/>
  <rect width="320" height="480" fill="url(#halo)" rx="32"/>
  <path d="M160 72 236 106c13 5 22 18 23 33v45c0 59-37 92-99 116-62-24-99-57-99-116v-45c1-15 10-28 23-33Z" fill="none" stroke="#00e5ff" stroke-width="8" stroke-linejoin="round"/>
  <path d="M102 231c17-21 38-32 60-38-17-12-25-27-25-44 0-30 24-53 66-53 13 0 29 4 46 10-21 2-38 13-48 28 22 6 37 19 37 39 0 23-18 42-49 50 19 5 34 15 49 31-17-5-35-7-52-6-16 20-39 34-74 41 16-15 25-31 29-49-13 0-24-2-31-9Z" fill="#f4fbfd"/>
  <path d="M112 194c-24 5-42 18-53 39 23-7 42-8 60-4" fill="none" stroke="#00e5ff" stroke-width="7" stroke-linecap="round"/>
  <path d="M207 194c24 5 42 18 54 39-23-7-42-8-61-4" fill="none" stroke="#00e5ff" stroke-width="7" stroke-linecap="round"/>
  <text x="36" y="364" fill="#f7fbfc" font-family="Segoe UI, Arial, sans-serif" font-size="34" font-weight="700">ORCA Operator</text>
  <text x="36" y="395" fill="#a6c4ce" font-family="Segoe UI, Arial, sans-serif" font-size="15">Local-first robotics and security command station</text>
  <text x="36" y="427" fill="#7fe7b6" font-family="Segoe UI, Arial, sans-serif" font-size="14" letter-spacing="2">WINDOWS INSTALLER</text>
</svg>
